<?xml version="1.0" encoding="utf-8"?>
<!-- Generator: Adobe Illustrator 27.2.0, SVG Export Plug-In . SVG Version: 6.00 Build 0)  -->
<svg version="1.1" id="Layer_3_copy" xmlns="http://www.w3.org/2000/svg" xmlns:xlink="http://www.w3.org/1999/xlink" x="0px"
	 y="0px" viewBox="0 0 600 400" style="enable-background:new 0 0 600 400;" xml:space="preserve">
<g>
	<path d="M137.8,185.6c0.8,3.6,1.9,5.9,3.3,8.6c3.6,6.9,9,10.6,15.6,10.6c10.3,0,21.3-18.4,29.1-34.6c0.2,2.5,0.4,4.9,0.6,7.3
		c0.6,7.2,1.4,13.7,2.1,18.3c1,6.7,1.6,9.1,4.1,9.1c8.9,0,23.1-26.1,31.4-43.1c0.4,5.1,0.9,10.2,1.5,14.9c3.1,25.8,6,25.8,8.1,25.8
		c3.8,0,6.1-5.3,10.6-16c2.5-5.9,5.5-12.8,9-19.4c-0.3,2.1-0.5,4.3-0.5,6.7c0,9.8,3.7,17.6,10.3,21.3c5.2,3,11.5,3,16.7-0.1
		c6.6-3.8,10.3-11.6,10.3-21.3c0-4.9-0.5-8.8-1.2-12.1c6.8-4.9,14.8-12.9,23.8-23.8c0.5-0.7,5.8-7.4,12.8-16.2
		c5.7,4.3,12.4,9.6,18.7,15.1c5.1,4.4,7.1,6.2,10.1,9.3c-4,6.7-4.2,14.9-2.7,19c0.8,2.4,3,5.2,9,5.2c6.1,0,9.7-1.8,10.7-5.3
		c0.8-2.8,0.4-7.5-8.7-17.5c7.2-10.9,19.1-24,29.2-31.8c20.9-16.2,28.5-22.9,31.1-34.6c1.8-7.9,0-15.8-5-22
		c-5.8-7.3-15.5-11.7-25.8-11.7c-17.4,0-25.6,9-35.6,24c-7.9-13.1-20-21.2-31.6-24.9c-16.1-5.1-31.6-1.8-38.6,8.2
		c-5.4,7.7-7.3,15.5-5.7,23.2c3.4,16.6,22.6,28.5,30.8,33.5c1.9,1.2,5.5,3.7,10.1,7.1c-7.1,9.1-12.5,15.9-12.6,16.1
		c-9.1,11-16.1,17.8-21.5,21.9c-2.2-5.4-5.2-7.6-7.3-8.6c-3.6-1.6-7.7-0.8-10.8,1.9c4.1-5.3,8.9-6.3,9.4-6.3c1.3-0.2,3.4-1,3.3-2.3
		c-0.1-1.3-1.2-1.6-2.5-1.6c-12.9,0.6-18.4,5.6-29.7,23.7c-2.5,3.9-10.7,25.2-12.2,27.6c-1.8-5.4-4.2-27.4-3.2-51.8
		c0.2-0.5,0.4-0.9,0.6-1.3c11.7-25.7,18.5-46.9,18.5-66.1c0-4.5-0.7-7.9-2.1-10.4c-1.7-3-4.4-4.6-7.9-4.6c-7.7,0-13.3,7.5-16.7,22.3
		c-2.6,11.3-4,27.3-4,46.2c0,8.5,0.3,17.4,0.8,26.2c-13.6,29.5-20.5,39.7-25.2,42.7c-1.2-5.3-0.5-9.7-1.6-28c0.3-6-0.9-17.4,0-19.6
		c11.8-29.5,16.5-55.2,16.5-73.4c0-5.5-0.7-9.8-2.1-12.9c-2.2-4.8-5.7-5.8-8.3-5.8c-7.3,0-12.3,7.3-15.3,22.5
		c-2.3,11.4-3.4,27-3.4,46.6c0,11.2,0.7,27.7,1.5,40.1c-5.5,10.2-16.7,33.4-24,33.4c-2.2,0-7.4-4.7-10.1-10c-1.7-3.3-2.9-7.4-3.5-12
		c2.8-3.1,9-11.5,11.5-16c2.7-4.8,6.6-14.8,5.3-18.1c-0.8-1.9-2.8-4.2-7.9-4.2c-13.2,0-20.1,17.9-20.1,35.6c0,2,0.1,4,0.3,5.9
		c-1.8,1.9-3.5,3.8-5.3,5.6c-1,1-0.9,2.6,0,3.5C132.6,188.4,136.2,187.4,137.8,185.6z M366.4,163.7c-0.3,1.1-0.5,1.7-3.9,1.7
		c-3.7,0-4.2-1.3-4.3-1.8c-0.8-2.3-1.3-6.5,1.6-11.6C366.8,160,366.6,163,366.4,163.7z M358.3,105.6c0,1.4,3.1,2.5,4.5,2.5
		s4.5-1.1,4.5-2.5c0-11.4-4.3-21.1-8.2-29.1c10.1-15.3,16.8-24,32.9-24c8.8,0,13,1.7,17.9,7.8c2.8,3.5,5.8,9.5,4,17.8
		c-2.1,9.6-8.2,15.4-29.3,31.7c-7.6,5.9-19.1,19.4-27.7,32c-3.1-3.1-4.9-4.7-9.6-8.8c-6.2-5.4-12.9-10.8-18.9-15.3
		c9.3-12,20.6-26.8,27.3-36.4C358.6,88.3,358.3,96.3,358.3,105.6z M313.9,107.4c-7.6-4.7-25.5-15.8-28.5-30.3
		c-1.3-6.3,0.4-12.8,4.9-19.4c3.8-5.5,11.1-8.5,19.7-8.5c4.2,0,8.7,0.7,13.3,2.1c11.2,3.5,22.8,11.6,30,24.8
		c-6.2,9.2-18.7,25.5-28.8,38.6C319.9,111.4,316.2,108.8,313.9,107.4z M272.5,153.8c1.1-1,2.3-1.5,3.6-1.5c0.6,0,1.3,0.1,1.9,0.4
		c1,0.4,3.4,2,5.1,6.9c-5,3.1-8,3.3-9.5,3c-2-0.4-2.6-1.7-2.7-2.2C269.8,157.6,271,155.1,272.5,153.8z M265.5,157
		c-0.2,1.7,0,3.4,0.5,5c0.4,1.1,1.9,4.6,6.6,5.5c3.3,0.6,7.2-0.3,11.7-2.8c0.4,2.5,0.7,5.5,0.7,9.2c0,7.9-3.5,15-7.6,17
		c-3.3,1.6-5.1,2.1-8.8,0c-4.9-2.8-5.4-10.5-5.4-18.5C263.2,165.9,264.1,160.9,265.5,157z M238.1,65.8c1.8-3.7,4.2-3.8,5.1-3.8
		c1,0,2.9,1.3,3.8,2.7c0.9,1.7,1.3,3.8,1.3,7.3c0,13.9-2.1,29-14.6,57.9C232.3,95.9,232.2,77.9,238.1,65.8z M199.1,66.7
		c0.7-3,1.6-7.2,3.5-7.2c1.1,0,2.6,0.3,3.7,2.9c1.1,2.4,1.6,6,1.6,10.8c0,19.5-2.2,37.3-12.5,63.4
		C194.1,103.3,195.4,83.3,199.1,66.7z M147.3,156.9c0.5-8.7,6-15.5,8.8-15.5c2,0,3-0.1,4.5,1.4c2.2,2.2-1.9,12.5-13.2,25.5
		C147.5,168.1,147.1,160.3,147.3,156.9z"/>
	<path d="M554.3,172.3c-14.2-16.3-36.3-24.5-65.7-24.5c-64.6,0-113.1,41.5-159.1,84.6c-1.3-27-5.7-45.5-12.2-48.3
		c-3.1-1.3-10.8,4.1-12,5.1c-1,0.9,10.5,12.8,11.6,55.1c-45.8,43.2-89.2,83.4-145.2,83.4c-20.6,0-28.2-6.3-38.4-18.6
		c-25.9-31.6-13.2-95.8-4.8-138.4c4.9-24.8,0.8-35.3-2.6-39.4c-0.9-1.1-4-2.3-5.4-2.3c-13.2,0-26.8,25.4-35,44.3
		c-0.6-5.8-1.2-11.8-1.6-17.9c-0.5-6-2.1-21.9-2.3-27.4c2.1-3.2,5.2-7.4,7.3-10.7c24.2-37.9,23.5-51.2,18.2-62.1
		c-1.5-3-4.9-6.6-12.6-6.6c-6.6,0-12,3.2-16.3,9.6c-9.9,14.8-11.7,48-10.4,79.8c-11,16.5-22.1,29.7-29.4,39.1
		c-0.8,1.1-0.6,2.7,0.4,3.5c1.1,0.8,5.3,1.4,5.7,0.9c0.2-0.3,10-17.1,23.7-37.2c2.5,42.6,10,84,11,86.4c0.4,0.9,1.3,1.5,2.3,1.5
		c0.3,0,9.5-4.5,9.8-4.7c1.3-0.5,1.9-2,1.4-3.2c-0.8-2.1-3.2-17.1-6.1-41.7c7.4-21.6,19.5-46.2,29.7-46.6c3.3,0-0.6,18.4-3.7,33.7
		c-8.6,43.4-18.6,109.1,8.8,142.5c11.1,13.6,28,20.4,50.2,20.4c56.5,0,100-39,145.2-81.6c0,21.2-0.5,37.8-0.9,50
		c-0.7,22.9-1,32.4,3,36.6c1.5,1.5,3.4,2.3,6,2.3c1.5,0,4.7,0,16.9-15.6c6.9-8.8,15-20.7,22.9-33.4c-0.3,6.7-1.7,40.3,3.6,45.7
		c0.7,0.7,1.7,0.9,2.6,0.6c0.9-0.3,1.6-1.1,1.7-2c3.7-25.5,13.5-65.1,26.9-65.1c1.7,0,1.3,0,1.7,0c4.3,0-0.4,14.7-3.1,24.6
		c-3.6,13.6-7.1,26.4-2.1,32.9c1.9,2.5,6.9,3.8,10.7,3.8c6.6,0,13.9-3.6,21.1-10.3c2.7,5.7,6.7,9.6,12.2,9.6
		c11.8,0,20.9-19.8,26.6-37c0,0.5,0,1-0.1,1.6c-1.2,28.5,1.3,31,2.5,32.2c0.7,0.7,4.8,0.9,5.8,0.5c0.9-0.4,3.5-1.3,3.5-2.4
		c0-0.5-7.3-51.7,13.4-60.8c5.2-2.3,7.5-1.3,12.6-1c4.8,0.3,7.1-4.8,6.9-6.8c-0.3-2.7-5.1-5.3-9.7-4.8c-5.8,0.6-9.6,2.1-13.9,6.6
		c-6.4,6.5-8.7,9.5-12.6,20.8c0.3-5.9,0.8-4.9,1.3-10.7c0.1-1.3-3.8-2.5-5.1-2.7c-1.3-0.2-2.5,0.7-2.8,2
		c-4.6,22.3-12.4,53.7-24.3,53.7c-3.6,0-7.4-3.4-9.4-8.4c1.9-2,3.6-4,5.1-6.5c7.5-12.1,11.8-21,11.8-29.6c0-3.2-0.8-5.7-2.2-7.6
		c-1.2-1.5-3.4-3.2-7.4-3.2c-6,0-11,3.7-14.3,10.8c-2.6,5.7-4.1,13.4-4.1,21.6c0,5.9,1.1,13.3,2.7,18.6c-6.2,6.1-10.3,9-16.6,9
		c-2.3,0-3.8-0.6-4.8-1.8c-3.5-4.5-0.1-17.3,2.9-28.5c3.4-12.7,4.3-21.1,4.3-24.6c0-5.5-7-7.3-11.8-7.3c-6.4,0-20.7,17.6-24.7,38.1
		c-0.8-9.7-0.7-15.7,0.5-31.3c9.8-16.4,20.3-35.1,20.3-48.5c0-2.4-0.5-4.2-1.5-5.6c-0.8-1.1-2.4-2.4-5.3-2.4
		c-5.6,0-10.4,4.8-14.4,14.2c-6,14.6-8.8,36.6-10,51.5c-0.9,1.6-1.9,3.1-2.9,4.7c-19.3,31.3-26.2,40.1-29.7,41c-1.4,0-2-0.4-2.3-0.7
		c-2.6-2.7-2.2-5.1-1.6-24c0.4-12.3,0.9-29.2,0.9-50.9c0-3.9-0.1-7.7-0.2-11.4c46.2-43.5,94.7-86.2,158.8-86.2
		c27.9,0,48.7,7.7,61.9,22.8c11.1,12.6,16.7,30.1,16.7,51.9c0,20.3-5.1,43.5-14,63.6c-8.8,19.8-18.4,31.1-22.4,28.8
		c-3.3-1.9-9.1-10.2-12.3-17.5c1-1.2,2-2.4,3-3.8c8.6-11.5,11.4-20,11.4-28.6c0-3.2-0.8-5.7-2.2-7.6c-1.2-1.5-3.4-3.2-7.4-3.2
		c-5.5,0-9.9,3.1-12.9,9c-2.5,4.8-3.8,11.5-3.8,18.7c0,6.6,1.1,13.4,3.3,19.4c-6.8,7.5-14.5,7.7-21.5,7.7c-1.4,0-2.7,6.4-2.7,7.8
		s1.1,2.5,2.5,2.5c7.4,0,15.8-4.6,23.9-13c4.1,8,10.5,13.6,18.9,13.6c11.9,0,23.6-24.3,27-31.8c9.2-20.7,14.5-44.6,14.5-65.6
		C572.2,204.8,566,185.7,554.3,172.3z M88.7,59.5c3.2-4.7,6-5.3,8.5-5.3c3.7,0.1,5.2,6.3,5.3,7.4c0.8,12.8-3.9,32.6-22.7,61.6
		C78.9,89.3,81,70.5,88.7,59.5z M436.4,275.3c1.2-2.3,4.7-4,5.7-3.9c1.6,0,2.8,0.4,3.5,1.3c0.7,0.9,1.1,2.5,1.1,4.5
		c0,9-3.2,19.6-12.6,30.6c-0.9-4-1.4-8.5-1.4-12.9C432.7,287.3,433.8,280.3,436.4,275.3z M384,228.7c2.1-4.8,4.7-9,5.9-9.2
		c0.8,0,1.5,0,1.7,2c0.8,7-0.9,17.4-14.2,40.7C379.2,246.2,379.5,238.9,384,228.7z M515.4,283c0-6.5,1.2-12.3,3.3-16.5
		c2.1-4.2,3.3-4.2,4.8-4.2c1.6,0,2.8,1.9,3.2,3c0.7,1.6,1.1,2.8,1.1,4.8c0,8.3-2.1,17.3-10.4,27.9C516.1,293.2,515.4,288,515.4,283z
		"/>
</g>
</svg>
