<?xml version="1.0" encoding="utf-8"?>
<!-- Generator: Adobe Illustrator 26.5.2, SVG Export Plug-In . SVG Version: 6.00 Build 0)  -->
<svg version="1.1" id="Layer_3_copy" xmlns="http://www.w3.org/2000/svg" xmlns:xlink="http://www.w3.org/1999/xlink" x="0px"
	 y="0px" viewBox="0 0 600 400" style="enable-background:new 0 0 600 400;" xml:space="preserve">
<style type="text/css">
	.st0{opacity:0.6;}
	.st1{fill:#C1272D;}
	.st2{opacity:0.63;}
	.st3{fill:#FFFFFF;}
</style>
<g>
	<g class="st0">
		<path class="st1" d="M256.5,206.9c1.8,0.1,3.5-0.1,5.3-0.6C260,206.6,258.2,206.8,256.5,206.9z"/>
	</g>
	<path d="M395.5,61.6c-1.6-1-3.2-1.9-5-2.6c14.6,7.9,19.7,21.9,14.7,37.6C410.9,84,407.6,69.1,395.5,61.6z M345,111.8
		c-1,1.2,1,2.5,1.7,1.1c1.4-3.8-0.4-8.1-1.5-11.8C345.7,104.5,346.5,108.9,345,111.8z M346.2,152.5c-3.6,5.1-10.2,16.6-7.2,22.7
		c-0.3-1-0.4-2-0.3-3C339.6,165.4,343.4,158.8,346.2,152.5z M266.4,147.8c0.3,0.6,0.6,1.2,0.7,1.8c0,0.3,0,0.6-0.3,0.5
		c0,0-0.2,0-0.1-0.1c-1.3,0.4-0.7,2.3,0.6,1.9c1.1-0.5,1.4-1.9,0.8-2.8C267.5,148.6,267,148.2,266.4,147.8z M259.9,173.8
		c-4.5-2-3.3-8.1-2.5-11.9c0-0.1-0.1-0.1-0.1,0c-1.8,4.3-2.9,14,4.4,12.5c0.1,0,0.1-0.1,0-0.1C261.1,174.1,260.4,174,259.9,173.8z
		 M246.1,77.8c0.2-7.5-4.1-17.7-13.1-16.1c-0.1,0-0.1,0.2,0,0.2c0.9,0.3,1.8,0.7,2.6,1.1c6.6,3.2,9.2,7.7,10.3,14.9
		C245.9,77.9,246.1,77.9,246.1,77.8z M245.3,171.3C245.3,171.2,245.2,171.2,245.3,171.3c-3.1,9.7-4.5,27.6,9.6,28.4
		C242.1,196.5,242.8,181.8,245.3,171.3z M215.8,187.1l-0.5-6.7c-0.1-1.7-0.3-5.1-0.3-6.7c-1.2-31.4,2-63.1,8-93.9
		C214.7,114.7,211.6,151.3,215.8,187.1z M186,63.1c0,0.1,0,0.1,0.1,0.1c2.4,1.2,4.6,2,6.8,3.3c2.1,1.5,3.7,3.6,5,5.9
		c0,0,0.1,0.1,0.1,0c0,0,0.1-0.1,0.1-0.1c-0.2-0.6-0.4-1.3-0.7-1.9C195.6,66.2,191,61.2,186,63.1z M170.8,153.9
		c0.3,9.1,1.3,19.4,2.5,28.3c0.5,4.2,1.5,9.8,2.2,14.1c-0.5-4.7-1.2-9.4-1.7-14.1c-1.1-10.2-1.8-21.6-2.2-31.9
		c-0.5-22.4,0.4-45.1,4.8-67.1C170.9,106.3,169.8,130.3,170.8,153.9z M140.5,145.6c7.2-0.7,9.9,3.2,10.7,9.8
		C152.2,148.6,147.6,143.1,140.5,145.6z M129.7,159.6c-6.1,13.4-10.4,37.3,4.3,46.5C121.7,194.9,126.5,174,129.7,159.6z"/>
	<path d="M385.7,55.7c-7.2-1.6-14.5-1.3-21.5,1.1c-10.8,3.8-18,13.6-23.8,22.6c-7.5-12.5-19.9-22.1-34.5-25.6
		c-10.3-2.4-22.1-2.1-30.8,4.7c-2.2,1.7-4.1,3.9-5.5,6.3c-4.5,6.8-6.8,15.6-4.6,23.6c4.8,17.1,21.5,26.2,35.6,34.8
		c1.8,1.2,3.7,2.4,5.5,3.7c-3.5,4.7-6.9,9.3-10.3,13.9c-5.8,7.7-12,15.3-18.2,22.5c-0.6,0.7-1.2,1.4-1.9,2.1l-0.5-2.4
		c0,0,0-0.1,0-0.1c-1.6-5.1-3.8-8.5-6.3-10.5c0.8-1.4,0.8-3.2-0.4-4.9c-0.4-0.6-1.4-1.1-2.2-1.2c-2.1-0.1-4.1,0.1-6,0.5
		c-13.1,3.3-28.2,10.4-28.6,42.1c-3.3,5.1-6.2,9.2-8.5,12.1c-1,1.2-2.9,0.7-3.1-0.8c-1-6-1.8-15.6-2.1-27.7
		c2.2-4.4,4.2-8.6,5.9-12.3c13.3-29.4,22.9-61.6,23.8-80.1c0.3-5.8-0.2-10.3-1.6-13.7c-1.8-4.5-7.2-9.3-17.8-7.7
		c-8.6,1.3-15.2,8.3-19.7,26.6c-4.2,16.9-5.9,38.2-6.6,53.1c-0.5,9.9,1.4,25.9,1.5,35.4c-7.4,14.8-15.2,22.5-20.3,27.4
		c-1.5,1.5-4,0.7-4.4-1.4c-1.1-5.9-2.3-14.9-3.1-26c2-4.4,3.8-8.7,5.3-12.4c11.8-29.7,19.8-61.9,19.8-80.2c0-5.8-0.7-10.2-2.2-13.5
		c-2-4.3-8.8-9.6-16.8-7.9c-8.4,1.8-15.7,10-19.4,28.3c-3.4,16.9-4.1,38-4.1,52.8c0,15.8,0.8,32.2,2.3,45.5
		c-7.6,13.5-13.9,19.8-17.6,19.8c-4.1,0-7.3-2.4-9.8-7.1c-1.5-3-2.6-6.7-3.3-10.8c2.7-3,5.8-6.6,8.9-10.4
		c15.1-18.8,15.1-25.7,13.5-29.6c-1-2.3-3.4-5.1-9.3-5.1c-2.2,0-4.2,0.4-6,1.2c-14.2,4.4-22.7,23.7-22.7,41.6
		c0,7.8,1.6,14.7,4.7,19.7c3.7,6.2,9.3,9.6,16.3,9.5c4.8,0,9.5-1.2,11.9-2.2c2.5-1,9-5.4,15.1-14.4c2.2,12.6,4.8,15.3,8.4,15.3
		c1.8,0,2.6,0,4.3,0c2.8,0,12.4,3.6,22.2-12.8c1.9-3.1,3.9-5.9,5.9-9.4c0.8,3.3,2,7.1,2.3,9c1.6,12.9,2.1,11.7,5.7,11.9
		c1.8,0.1,6.7,0.4,8.4,0.4c2.7,0.1,6.2-1,15.8-15.1c0.7,0.8,1.5,1.6,2.2,2.2c4.5,4.1,10.3,6.2,17.6,6.2c0.6,0,1.2,0,1.8,0h0.1
		c1.7-0.1,3.4-0.3,5.3-0.6c0.2,0,0.3,0,0.5-0.1c0.5-0.1,1-0.3,1.5-0.6c0.9-0.3,1.8-0.8,2.7-1.3c7-4.1,11-12.3,11-22.6
		c0-3.4-0.2-6.6-0.5-9.4l-0.5-2.5c10.8-10.2,20.6-21.5,30-33c1.7-2,3.3-4.1,5-6.2c9.6,6.8,18.8,14,27.3,22c1.3,1.2,2.5,2.5,3.8,3.8
		c-3.8,6.3-6.5,13.2-4.7,17.8c1.7,3.8,6.5,4.1,10,3.7c2.8-0.2,6.1-1.1,7.2-4.1c1.4-4.1-2.9-10.5-8.6-16.9
		c7.9-11.9,21.1-24.5,29.8-31.2c4.5-3.5,11.2-8.2,15.5-11.9c6.9-5.7,14.2-12.3,16.9-21.4C414.1,75.2,402.6,59.6,385.7,55.7z
		 M151.2,155.5c-0.7-6.7-3.5-10.5-10.7-9.8C147.6,143.1,152.2,148.6,151.2,155.5z M139.6,152.1c1-0.5,2-0.7,3.1-0.7
		c0.6,0,1.1,0,1.4,0.1c0.3,0,0.5,0.1,0.5,0.1c0.1,0.7,0.2,5.6-12.5,21.5c-1,1.2-2,2.5-3,3.6C129.9,165.8,133.7,155,139.6,152.1z
		 M129.7,159.6c-3.2,14.3-8,35.3,4.3,46.5C119.3,196.9,123.6,173,129.7,159.6z M197.4,70.5c0.2,0.6,0.4,1.3,0.7,1.9
		c0,0,0,0.1-0.1,0.1c0,0-0.1,0-0.1,0c-1.2-2.3-2.8-4.4-5-5.9c-2.3-1.3-4.4-2.2-6.8-3.3c-0.1,0-0.1-0.1-0.1-0.1
		C191,61.2,195.6,66.2,197.4,70.5z M183,74.6c1.3-2.5,3.3-5.5,5.7-5.5c0.5,0,1.5,0,2.4,2c0.7,1.5,1.5,4.5,1.5,10.2
		c0,16.8-7.2,46.3-18,74.2c-0.1-2.4-0.1-4.8-0.2-7.2C173.8,113.8,177,86.3,183,74.6z M173.3,182.3c-1.1-9-2.1-19.3-2.5-28.3
		c-1-23.6,0.1-47.7,5.5-70.7c-4.3,22-5.2,44.7-4.8,67.1c0.3,10.3,1.1,21.6,2.2,31.9c0.5,4.7,1.2,9.4,1.7,14.1
		C174.8,192.1,173.8,186.4,173.3,182.3z M233.1,61.6c9-1.6,13.3,8.7,13.1,16.1c0,0.1-0.2,0.1-0.2,0c-1.1-7.2-3.6-11.7-10.3-14.9
		c-0.8-0.4-1.7-0.7-2.6-1.1C233,61.8,233,61.6,233.1,61.6z M223,79.7c-6.1,30.8-9.2,62.5-8,93.9c0,1.7,0.2,5.1,0.3,6.7l0.5,6.7
		C211.6,151.3,214.7,114.7,223,79.7z M218,146.6c1.1-34.8,5.6-62.4,12.1-73.9c1.4-2.5,3.6-5.4,6-5.3c0.5,0,1.5,0.1,2.3,2.2
		c0.6,1.6,1.3,4.6,1,10.3c-0.8,17-9.4,46.4-21.7,74.1C217.9,151.5,217.9,149.1,218,146.6z M266.7,150
		C266.6,150.1,266.8,150.1,266.7,150c0.3,0.2,0.4-0.1,0.4-0.4c-0.1-0.6-0.3-1.2-0.7-1.8c0.6,0.4,1.1,0.8,1.6,1.4
		c0.7,0.9,0.4,2.3-0.8,2.8C266,152.3,265.4,150.4,266.7,150z M263.4,158.8c0.6,0.6,3.4,2.3,5,10.8c-6,5.4-8.7,1.6-9.1,1.1
		s-0.9-2-0.9-6.3C258.4,156.3,262.8,158.2,263.4,158.8z M257.3,161.8C257.3,161.7,257.4,161.8,257.3,161.8c-0.7,3.9-1.9,10,2.6,12
		c0.6,0.2,1.2,0.3,1.9,0.5c0.1,0,0.1,0.1,0,0.1C254.4,175.8,255.5,166.1,257.3,161.8z M245.2,171.2
		C245.2,171.2,245.3,171.2,245.2,171.2c-2.4,10.6-3.1,25.3,9.7,28.4C240.8,198.8,242.2,181,245.2,171.2z M262.5,197.5
		c-0.7,0.4-1.5,0.8-2.3,1c-1.3,0.2-2.5,0.3-3.7,0.4c-1.5-0.1-2.9-0.6-4.2-1.3c-4.5-2.6-7-8.3-7-15.7c0-8.1,2.2-13.9,5.2-18v4.4
		c0,5,0.6,11.9,6.1,13.9c3.1,1.1,6.9,1.5,12.9-3.1c0,0.9,0.1,1.8,0.1,2.8C269.5,189.2,267,194.9,262.5,197.5z M308.8,123.3
		c-1.8-1.4-3.6-2.8-5.4-4.1c-16.9-11.6-42.9-28.4-27.3-51.5c2.5-3.8,6.3-6.2,10.7-7.5c11.5-3.2,24.6,0.2,34.6,6.5
		c6.6,4.2,12.2,9.8,16.5,16.3C328.8,96.6,318.7,110.1,308.8,123.3z M339,175.2c-3.1-6.1,3.6-17.7,7.2-22.7
		c-2.8,6.3-6.6,12.9-7.5,19.7C338.6,173.3,338.7,174.3,339,175.2z M351.2,167.2c2.7,4.7,2.5,7.8-3.5,8.2c-4.7,0.4-8.6-0.6-7.3-6.2
		c0.9-3.1,2.5-6.5,4.7-10.1C347.4,161.7,349.5,164.3,351.2,167.2z M394.2,102.3c-6.3,6.6-14.6,13-21.7,18.9
		c-7.5,6.5-14.2,13.8-20.4,21.6c-2,2.7-5.3,6.9-8.2,11.5c-6.7-7-14.5-13.5-17.8-16.6c-4-3.4-8-6.8-12.1-10.1
		c9.7-11.9,17.9-22,26.8-34.5c-0.1,1.2-0.2,2.1-0.4,3.7c-1,7.9-2.7,10.2-2.7,13.2c0,4.7,2.2,6.5,5.5,6.5c2.7,0,4.9-3,4.8-7.2
		c-0.1-2.3-1.4-4.9-2.7-10.8c-0.6-2.5-1.7-5.5-1.8-8.9c0.3-0.4,1.5-2.5,1.8-3c5.9-8.4,11.7-18.3,21.6-21.9
		c7.9-2.6,17.4-2.2,24.7,2.1C405.8,75.1,405.1,91.4,394.2,102.3z M345.2,101.1c1.1,3.6,2.9,7.9,1.5,11.8c-0.7,1.4-2.7,0.1-1.7-1.1
		C346.5,108.9,345.7,104.5,345.2,101.1z M405.3,96.6c5.1-15.7-0.1-29.7-14.7-37.6c1.7,0.8,3.4,1.6,5,2.6
		C407.6,69.1,410.9,84,405.3,96.6z"/>
	<g class="st2">
		<path d="M93.2,139.8c0.9-0.6,1.8-1.1,2.6-1.6C94.7,138.4,93.8,138.9,93.2,139.8z"/>
	</g>
	<path class="st3" d="M346.7,112.9c-0.7,1.4-2.7,0.1-1.7-1.1c1.5-2.9,0.6-7.3,0.2-10.7C346.3,104.8,348.1,109.1,346.7,112.9z"/>
	<path d="M18.1,190.2c-0.1-1.1-0.4-2.1-0.8-3c0.2,2-0.3,4-1.1,5.8c-0.3,0.6,0.2,1.4,0.9,1.4c0.6,0,1-0.4,1.1-0.9
		C18.3,192.3,18.2,191.2,18.1,190.2z M52.7,96.7c-4.9,26-6.8,52.9-3.2,79.1c-0.2-3.3-0.6-6.6-0.6-9.9
		C47.8,142.8,49.6,119.6,52.7,96.7z M65.9,234.7c-0.5-1.9-1.4-3.7-2.4-5.3c0.7,1.8,1.3,3.6,1.4,5.4c0.1,1.6-0.2,3.5-1.6,4.3
		c-1.2,0.8,0,2.5,1.1,1.7C66.2,239.3,66.5,236.8,65.9,234.7z M71.9,60.9c-0.1,0-0.1,0.2,0,0.2c8,1.5,11.2,8.6,12.8,15.8
		c0,0.1,0.2,0.1,0.2,0C84.6,69.9,80.9,58.1,71.9,60.9z M93.2,139.8c0.9-0.6,1.8-1.1,2.6-1.6C94.7,138.4,93.8,138.9,93.2,139.8z
		 M108.7,140.8c-0.2-4.1-5.4-7.2-8.9-4.4c0,0.1,0,0.1,0.1,0.1c2.1,0.7,3.9,0.8,5.8,1.6c1.8,1,2.5,3.2,2.8,5.2c0,0.1,0.2,0.1,0.2,0
		C108.8,142.6,108.8,141.7,108.7,140.8z M119,330.7c-35.8-18.3-37.4-64-34.1-99.2c-5.7,35.6-3.4,82.7,33.4,100.6
		c11.4,5.5,24.4,7.2,36.9,6.2C142.8,338.5,130.1,336.5,119,330.7z M304,198.7c-2.9-3.4-7.1-6.8-11.9-6.2c-0.1,0-0.1,0.2,0,0.2
		c3,0.3,5.5,1.8,7.5,4c1.9,2.3,3.8,4.6,6.5,6.1c0.1,0,0.2,0,0.2-0.1C305.7,201.2,304.9,199.9,304,198.7z M314.3,254.6
		c-0.8,23.6-2.7,48.4-2.2,72C313,303,314.9,278.2,314.3,254.6z M360.3,243.5c-6.1,17.5-10.7,50.9-7.4,69.1c-0.3-2.9-0.6-5.8-0.5-8.7
		c0-8.7,0.7-17.4,1.7-26.1C355.5,266.3,357.2,254.7,360.3,243.5z M371.9,221.9c0,0.1,0,0.1,0.1,0.1c1.1,0.3,2,0.4,2.9,0.6
		c0.8,0.2,1.7,0.1,2.5,0.4c1.8,0.6,3,2.2,3.7,3.9c0,0.1,0.2,0.1,0.2-0.1C381.1,222.5,375.6,218.4,371.9,221.9z M384.1,270.8
		c0,0,0,0.1,0.1,0.2c2.1,1.1,3.9,1.7,5.9,2.7c1.9,1.1,3.1,3.1,3.8,5.1c0,0.1,0.2,0.1,0.2,0C393.9,274,389,268.6,384.1,270.8z
		 M502.8,290.7c-3.5,1.9-5.9,5.2-8.3,8.4c-5.3,7.5-11,20.3-2.5,27.6c1.6,1.3,3.4,2.1,5.3,2.7c-1.7-1-3.4-2-4.7-3.4
		c-6.9-7.5-1.1-18.5,3.1-26C497.9,296.7,499.9,293.2,502.8,290.7z M496.5,279.4c-0.1,0.1-0.2,0.2-0.3,0.3c-2.1,2.3-4.5,4.6-6,7.2
		c2.2-2.1,4.3-4.6,6.7-6.5c0.2-0.2,0.4-0.3,0.6-0.5C497.1,279.7,496.8,279.6,496.5,279.4z M513.2,272.2c-2.4-0.8-4.8-0.5-7.1,0.4
		c-0.1,0.7-0.3,1.5-0.5,2.2c4.8-1.9,9.6-1.2,13.5,5c0.1,0.1,0.2,0,0.2-0.1C518.4,276.4,516.5,273.4,513.2,272.2z M504.9,271
		c-0.1,0-0.2,0.1-0.2,0.1c-0.1,0.8-0.2,1.5-0.4,2.3c-0.3,1-0.7,1.9-1.3,2.6c0,0,0,0,0,0c-0.5,0.3-1,0.6-1.6,1
		c-0.2,0.1-0.4,0.1-0.7,0.1c-0.5,0-0.9,0.5-0.9,1c0,0.1,0,0.2,0,0.3c0.2,0.5,0.7,0.8,1.2,0.7c2-0.5,3.2-2.1,3.7-4
		c0.2-0.7,0.3-1.4,0.3-2.1c0-0.2,0-0.4,0-0.6C505,271.9,505,271.5,504.9,271z M513.1,160.9c-3.9-1.3-8.4-2.6-12.4-3.3
		c-4-0.9-8.6-1.5-12.7-2c50.1,6.2,81.9,40.2,87.1,90.1C573.1,207.9,550,172.6,513.1,160.9z"/>
	<path d="M552.4,184.3c-19.1-20.9-46.8-31.9-80.3-31.9c-63.5,0-111.4,39.5-156.5,81.7c-2-21.2-6.9-34.6-14.8-40
		c-5.7-3.9-12.1-3.9-15.7-0.2c-2.2,2.2-3.2,5.4-3.2,8.3l0,0c-0.1,1.4-0.4,4.9-0.6,6.7c-1.1,9.1-2.9,11.7-2.9,15.2
		c0,5.4,2.4,7.5,6,7.5c2.9,0,5.5-3.4,5.3-8.3c-0.1-2.6-1.4-5.5-2.9-12c5.6,3.2,13.5,4.2,14.1,36.6c-46.1,43.5-89.7,84.5-145.7,84.5
		c-1.9,0-3.7,0-5.5-0.2h0c-1.5-0.1-2.9-0.2-4.3-0.3h-0.1c-15.4-1.7-27-7.5-35.3-17.5c-25.5-31-12.8-94.9-4.4-137.1
		c5.1-25.9,7.1-36.6,3.2-41.3c-1.2-1.4-2.9-2.2-4.7-2.2c-1.4,0-4,0-8.7,2.6c0,0,0,0,0,0c-0.8,0.4-1.6,1-2.6,1.6
		c-6.4,4.2-15.9,14.7-29.7,31.8c-3.7,4.6-7.2,9.1-10.4,13.4c-1-11.5-1.4-25.2-1.2-36.7c1.4-2.2,16.4-21,18.1-23.2
		c7-9.1,11.7-14.7,15.5-26.3c5.2-15.8,2.1-24.6-1.2-31.3c-1.7-3.4-5.4-7.4-14-7.4c-12.6,0-22.1,10.5-28.2,31.2
		c-6,20.4-7.2,35.7-7.2,53.2c0,1.4,0,6.9,0,8.5c-12.1,9-17.6,17.6-20.1,23.1c-1.1,2.4-4.2,14.9-4.2,17c0,4.1,1.9,5.6,4.7,5.6
		c2.3,0,4.3-2.6,4.2-6.3c-0.1-2-1.2-4.2-2.3-9.4c-0.1-0.5,0.1-2.9,0.4-3.3c0.1-0.2,1.2-5.2,17.8-18.6c1.5,30.2,5.9,84.9,20.9,85.3
		c8.9,0.2,16.4-4.9,9.1-16.5c-3.5-5.6-6.6-13.4-8.9-19.8c-2-5.5-2.2-9.1-2.8-14.3c4.2-5.8,10.3-14.2,16.1-21.4
		c11.8-14.6,20-22.4,25.5-26.5c0,6-2.6,19.4-5,31.4c-8.4,42.9-21.1,107.7,6.5,141.3c11,13.3,24.5,20.7,48.7,23c0,0,0,0,0,0
		c0,0,0,0,0,0c0,0,6.7,0.5,10.2,0.5c56.9,0,100.4-40.8,145.7-83.5c0,20.4-0.5,36.5-0.9,48.3c-0.8,24.1-1.1,33.1,3.4,37.7
		c1.8,1.8,4.1,2.7,7.1,2.7c2.6,0,6.4-1.2,18-16.2c4.4-5.7,9.4-12.7,14.5-20.3c0,4.7,0.1,9.3,0.2,13.8c0.1,6,0.2,11.7,0.2,17
		c0,2.2,1.8,4,4,4c1.7,0,7.2-0.1,8.7-0.5c1.4-0.5,2.5-1.7,2.7-3.2c3.1-21.8,10.8-50.8,19.8-61c0.5,0.1,0.9,0.2,1.1,0.5
		c1.7,2.2-1.1,11.9-3,18.3c-3.6,12.4-7.3,25.2-1.3,33.3c2.6,3.5,6.7,5.5,12.2,6.1c0,0,0,0,0,0c1.1,0.3,2.4,0.4,3.8,0.4
		c5.4,0,11.2-2.3,17.1-6.5c0.7,0.8,1.4,1.6,2.1,2.3c4.2,4.2,9.7,6.8,16.4,6.8c7.3,0,14.3-8.5,20.1-19.2c1.2,12.8,4.5,14.7,5.9,15.6
		c0.7,0.4,6.8,0.9,8.1,0.4c1.5-0.5,2.5-1.9,2.6-3.5c0.6-9.6,3-27.2,8.2-42c0,0,0,0,0-0.1c5-12.5,11.8-22.5,21.1-22.8v0
		c0,3.1,0.8,5.7,2.1,7.4c-9.3,9.2-18,24.6-18,37.3c0,6.5,2.3,12,6.8,15.8c4.8,4.1,12,6.2,21.3,6.2c1.9,0,3.7-0.1,5.5-0.2
		c0.7,0,1.4-0.1,2.1-0.2c42.8-4.3,65.1-44.5,65.1-84.3C577.9,226.5,568.9,202.3,552.4,184.3z M288.1,226.9c-0.1,0.2-0.2,0.4-0.4,0.6
		c-0.9,1-2.3-0.4-1.5-1.4c1.7-3.5,0.7-8.4,0.1-12.4C287.6,217.9,289.4,222.6,288.1,226.9z M17.3,187.1c0.4,1,0.7,2,0.8,3
		s0.2,2.2,0.1,3.2c0,0.6-0.5,1-1.1,0.9c-0.7,0-1.1-0.8-0.9-1.4C17,191.1,17.5,189.1,17.3,187.1z M71.9,60.9c9-2.8,12.7,9,13.1,16
		c0,0.1-0.2,0.2-0.2,0C83.2,69.7,80,62.6,72,61.1C71.8,61.1,71.8,60.9,71.9,60.9z M56.2,99.4C59,88.4,64.1,71.3,77,70
		c2.8,10.9,2.6,27.9-25.1,63.4C52.6,122.9,53.8,109.5,56.2,99.4z M48.9,165.9c0.1,3.3,0.4,6.6,0.6,9.9c-3.5-26.3-1.6-53.2,3.2-79.1
		C49.6,119.6,47.8,142.8,48.9,165.9z M63.2,239.2c1.4-0.8,1.8-2.7,1.6-4.3c-0.1-1.8-0.7-3.7-1.4-5.4c1,1.6,1.9,3.3,2.4,5.3
		c0.6,2,0.3,4.6-1.5,6.1C63.3,241.7,62,239.9,63.2,239.2z M108.7,140.8c0.1,0.8,0.1,1.7,0,2.5c0,0.1-0.2,0.1-0.2,0
		c-0.3-2-1-4.2-2.8-5.2c-1.9-0.9-3.7-1-5.8-1.6c-0.1,0-0.1-0.1-0.1-0.1C103.3,133.6,108.5,136.8,108.7,140.8z M93.2,139.8
		c0.6-0.8,1.5-1.4,2.6-1.6C94.9,138.6,94.1,139.1,93.2,139.8z M118.3,332.1c-36.8-17.9-39.1-65-33.4-100.6
		c-3.3,35.2-1.6,80.9,34.1,99.2c11.1,5.7,23.8,7.7,36.2,7.6C142.7,339.3,129.7,337.6,118.3,332.1z M306.1,202.8
		c-2.7-1.5-4.6-3.8-6.5-6.1c-2-2.2-4.5-3.7-7.5-4c-0.1,0-0.1-0.2,0-0.2c4.7-0.6,9,2.8,11.9,6.2c0.9,1.2,1.7,2.5,2.3,4
		C306.3,202.8,306.2,202.9,306.1,202.8z M309.2,339.2c-0.1-0.1-0.2-0.3-0.3-0.5c0.2,0.2,0.5,0.5,0.8,0.7
		C309.4,339.4,309.3,339.3,309.2,339.2z M500.7,157.6c4,0.8,8.5,2,12.4,3.3c36.9,11.7,59.9,47,62,84.8c-5.2-50-37-83.9-87.1-90.1
		C492.1,156.1,496.7,156.7,500.7,157.6z M314.3,254.6c0.6,23.6-1.3,48.4-2.2,72C311.6,303,313.5,278.2,314.3,254.6z M352.9,312.6
		c-3.3-18.1,1.3-51.6,7.4-69.1c-3.1,11.2-4.8,22.8-6.2,34.3c-1,8.6-1.8,17.4-1.7,26.1C352.4,306.8,352.6,309.7,352.9,312.6z
		 M374.5,227.6h0.1c0.2,0.7,0.7,3.5-2,11.4c-2.9,8.5-7.9,19.1-13.9,30.1c2.3-15.8,5.6-28.4,9.5-35.5
		C369.3,231.4,371.8,227.6,374.5,227.6z M371.9,221.9c3.7-3.5,9.2,0.6,9.4,4.9c0,0.1-0.1,0.2-0.2,0.1c-0.8-1.7-2-3.3-3.7-3.9
		c-0.8-0.3-1.7-0.2-2.5-0.4c-0.9-0.2-1.8-0.3-2.9-0.6C371.9,222,371.9,222,371.9,221.9z M384.1,270.8c4.9-2.2,9.8,3.2,10,8
		c0,0.1-0.2,0.2-0.2,0c-0.7-2.1-1.9-4-3.8-5.1c-2-1-3.8-1.6-5.9-2.7C384.1,270.9,384.1,270.8,384.1,270.8z M416.4,326.3
		c-2.6-5.9-4.3-12.2-4.4-18.7c-0.1-8.5,2.5-17.6,8.9-23.5c-8.1,11.2-8.3,26.1-4.4,38.8c0.8,3,2,6.1,3,9
		C418.4,330.1,417.4,328.2,416.4,326.3z M427.8,282.6c0.7,0,1.2,0.1,1.5,0.2c0.5,0.2,0.7,0.5,0.8,0.6c0.5,0.7,0.8,1.9,0.8,3.5
		c0,7.9-6.1,20.8-14.3,31.2c-0.5-2.9-0.8-6.1-0.8-9.5c0-7.2,1.3-14.1,3.5-18.9c1.5-3.3,3.3-5.4,5.5-6.4c0,0,0,0,0,0
		C425.8,282.8,426.8,282.6,427.8,282.6z M427,275.2c5.8-1,11.6,5,10.5,10.8c0,0.1-0.1,0.1-0.2,0c-1.3-2-2.2-4-3.2-6.1
		c-0.8-1.4-1.9-2.6-3.3-3.4c-1.1-0.7-2.4-1.1-3.8-1.1C426.9,275.4,426.9,275.3,427,275.2z M460.6,333.2l-0.1,0
		c-2-8.3-2.1-16.9-1.8-25.3c0.4-8.4,1-17.2,2.4-25.3C459.4,299.4,458.8,316.4,460.6,333.2z M496.2,279.6c0.1-0.1,0.2-0.2,0.3-0.3
		c0.3,0.2,0.6,0.4,1,0.5c-0.2,0.2-0.4,0.3-0.6,0.5c-2.4,1.9-4.5,4.4-6.7,6.5C491.7,284.3,494.1,281.9,496.2,279.6z M492.1,326.6
		c-8.5-7.3-2.8-20.1,2.5-27.6c2.3-3.1,4.8-6.5,8.3-8.4c-2.9,2.5-4.9,6-7,9.2c-4.3,7.5-10.1,18.5-3.1,26c1.3,1.4,2.9,2.4,4.7,3.4
		C495.5,328.7,493.6,327.9,492.1,326.6z M500.7,277.1c0.2,0,0.5-0.1,0.7-0.1c0.5-0.4,1-0.7,1.6-1c0,0,0,0,0,0
		c0.6-0.7,1.1-1.6,1.3-2.6c0.2-0.7,0.3-1.5,0.4-2.3c0-0.4,0.1-0.8,0.1-1.2c0.1,0.4,0.1,0.7,0.2,1.1c0,0.5,0.1,0.9,0.1,1.4
		c0,0.2,0,0.4,0,0.6c0,0.7-0.1,1.4-0.3,2.1c-0.5,1.8-1.7,3.5-3.7,4c-0.5,0.2-1.1-0.1-1.2-0.7c0-0.1,0-0.2,0-0.3
		C499.7,277.6,500.1,277.1,500.7,277.1z M499.9,259.8c1.4-0.2,2.6,0.6,3.4,1.7c0.8,1,1.3,2.2,1.5,3.5c0,0.1-0.1,0.1-0.1,0
		C503.8,262.5,501.8,261.4,499.9,259.8C499.8,259.8,499.9,259.8,499.9,259.8z M513.2,272.2c3.2,1.2,5.2,4.3,6.1,7.4
		c0,0.1-0.1,0.2-0.2,0.1c-3.9-6.1-8.7-6.8-13.5-5c0.3-0.7,0.4-1.4,0.5-2.2C508.4,271.7,510.8,271.4,513.2,272.2z M510.3,301.6
		c-2.9,4.6-8.2,9.9-18.1,11c2.6-11.9,14.6-25.5,21.5-28.8C514.8,288.6,514,295.6,510.3,301.6z M510.3,329.1
		c-6.8-0.1-11.8-1.4-14.9-3.8c-1.6-1.2-2.7-2.8-3.2-4.7c10.8-1,19.5-6.1,24.9-14.9c5.2-8.5,6.5-19.6,3.3-27.3
		c-0.3-0.7-0.6-1.3-0.9-2c-0.1-0.1-0.2-0.3-0.2-0.4c-2.3-3.9-5.8-6-9.9-6c-1,0-2,0.2-3.1,0.5c0-5.2-1.4-8.1-3.5-10.2
		c-1.4-1.4-5.3-1.3-7.4-1.1c-0.2,0-0.5,0.1-0.7,0.1c-14.4,3.2-23.7,14.1-29.5,29.5c0,0,0,0.1,0,0.1c-1,2.7-1.9,5.5-2.7,8.2
		c0-0.4,0-0.8,0.1-1.2c0,0,0,0,0,0c0.3-5.8,0.8-11.7,1.3-17.3c0.2-2.1-1.2-3.9-3.3-4.3c-0.8-0.1-3.9-1.1-5-1.2
		c-2.4-0.2-4.2,1.4-5.2,4.7c-1.5,4.8-2.8,15.8-3.3,26.8c-6.4,15.9-14.2,29.3-20.9,29.3c-2.5,0-4.9-2.5-6.6-6.6
		c1.7-1.8,3.3-3.8,4.9-6c9-11.9,14.7-25.4,14.7-34.5c0-3.5-0.9-6.4-2.6-8.5c-1.4-1.7-4-3.8-8.6-3.8c-10.9,0-17,5.5-21,11
		c-4.2,5.8-6.5,13.6-6.5,22.1c0,6.4,1.4,13,4.1,18.6c-4,3-8.2,5-12,5.3c-0.3,0-0.6,0-0.9,0c-1.1,0-1.8-0.1-2.3-0.3l0,0
		c-0.8-0.3-1.1-0.7-1.2-0.9c-3-4,0.6-17.4,3.2-27.2c3.5-13,6.5-24.3,2-30.2c-1.2-1.6-3.6-3.6-7.9-3.6c-10.7,0-19.4,12.1-26.7,37
		c-1.1,3.8-2.1,7.5-3,11c-0.1-6.9,0.1-15.3,0.7-24.6c0.1-1.3,0.2-2.5,0.3-3.8c9.9-16.6,26.3-46.2,26.3-59.8c0-2.7-0.6-4.8-1.8-6.4
		c-1.2-1.7-3.1-2.7-5.3-3c0,0,0,0,0,0c-0.3-0.1-0.6-0.1-0.9-0.1c-6.3,0-11.8,2.3-16.2,6.8c-12.2,12.4-15,40.4-15.5,68.9v0.9
		c-9.9,15.5-19.9,29.4-26.5,37.1c-0.1,0-0.3,0-0.5,0c-0.9,0-1.4-0.1-1.5-0.2c-1-1.6-0.5-9.7,0.1-18.9c0.7-12,1.9-30.2,1.9-57
		c0-4.5-0.1-8.8-0.3-12.9c45.4-42.7,93.2-84,155.8-84c31.2,0,56.9,10.1,74.4,29.3c15.1,16.5,23.4,38.9,23.4,62.9
		C569.9,289.1,549.5,326.1,510.3,329.1z"/>
	<path class="st3" d="M18.2,193.4c0,0.6-0.5,1-1.1,0.9c-0.7,0-1.1-0.8-0.9-1.4c0.8-1.8,1.2-3.8,1.1-5.8c0.4,1,0.7,2,0.8,3
		S18.3,192.3,18.2,193.4z"/>
	<path class="st3" d="M64.4,240.8c-1.1,0.9-2.4-0.9-1.1-1.7c1.4-0.8,1.8-2.7,1.6-4.3c-0.1-1.8-0.7-3.7-1.4-5.4
		c1,1.6,1.9,3.3,2.4,5.3C66.5,236.8,66.2,239.3,64.4,240.8z"/>
	<path class="st3" d="M108.7,143.4c0,0.1-0.2,0.1-0.2,0c-0.3-2-1-4.2-2.8-5.2c-1.9-0.9-3.7-1-5.8-1.6c-0.1,0-0.1-0.1-0.1-0.1
		c3.4-2.8,8.6,0.3,8.9,4.4C108.8,141.7,108.8,142.6,108.7,143.4z"/>
	<path class="st3" d="M381.3,226.8c0,0.1-0.1,0.2-0.2,0.1c-0.8-1.7-2-3.3-3.7-3.9c-0.8-0.3-1.7-0.2-2.5-0.4
		c-0.9-0.2-1.8-0.3-2.9-0.6c-0.1,0-0.1-0.1-0.1-0.1C375.6,218.4,381.1,222.5,381.3,226.8z"/>
	<path class="st3" d="M394,278.7c0,0.1-0.2,0.2-0.2,0c-0.7-2.1-1.9-4-3.8-5.1c-2-1-3.8-1.6-5.9-2.7c-0.1,0-0.1-0.1-0.1-0.2
		C389,268.6,393.9,274,394,278.7z"/>
	<path class="st3" d="M151.2,155.5c-0.7-6.7-3.5-10.5-10.7-9.8C147.6,143.1,152.2,148.6,151.2,155.5z"/>
	<path class="st3" d="M85,76.8c0,0.1-0.2,0.2-0.2,0C83.2,69.7,80,62.6,72,61.1c-0.1,0-0.1-0.2,0-0.2C80.9,58.1,84.6,69.9,85,76.8z"
		/>
	<path class="st3" d="M198,72.4c0,0,0,0.1-0.1,0.1c0,0-0.1,0-0.1,0c-1.2-2.3-2.8-4.4-5-5.9c-2.3-1.3-4.4-2.2-6.8-3.3
		c-0.1,0-0.1-0.1-0.1-0.1c5-1.9,9.6,3.1,11.4,7.3C197.6,71.1,197.8,71.8,198,72.4z"/>
	<path class="st3" d="M246.1,77.8c0,0.1-0.2,0.1-0.2,0c-1.1-7.2-3.6-11.7-10.3-14.9c-0.8-0.4-1.7-0.7-2.6-1.1c-0.1,0-0.1-0.2,0-0.2
		C242.1,60,246.4,70.3,246.1,77.8z"/>
	<path class="st3" d="M261.8,174.3c-7.4,1.5-6.2-8.2-4.4-12.5c0-0.1,0.1,0,0.1,0c-0.8,3.9-2,10,2.5,11.9c0.6,0.2,1.2,0.3,1.9,0.5
		C261.8,174.2,261.8,174.3,261.8,174.3z"/>
	<path class="st3" d="M254.9,199.7c-14-0.8-12.7-18.6-9.7-28.4c0-0.1,0.1,0,0.1,0C242.8,181.8,242.1,196.5,254.9,199.7z"/>
	<g>
		<path d="M286.4,213.8c0.5,4,1.5,8.9-0.1,12.4c-0.9,1,0.6,2.3,1.5,1.4c0.2-0.2,0.3-0.4,0.4-0.6
			C289.4,222.6,287.6,217.9,286.4,213.8z"/>
		<path class="st3" d="M288.1,226.9c-0.1,0.2-0.2,0.4-0.4,0.6c-0.9,1-2.3-0.4-1.5-1.4c1.7-3.5,0.7-8.4,0.1-12.4
			C287.6,217.9,289.4,222.6,288.1,226.9z"/>
	</g>
	<path class="st3" d="M497.5,279.8c-0.2,0.2-0.4,0.3-0.6,0.5c-2.4,1.9-4.5,4.4-6.7,6.5c1.5-2.6,3.9-5,6-7.2c0.1-0.1,0.2-0.2,0.3-0.3
		C496.8,279.6,497.1,279.7,497.5,279.8z"/>
	<path class="st3" d="M501.3,276.9c-0.5,0.3-1.1,0.7-1.6,1.1c0-0.5,0.4-0.9,0.9-1C500.9,277.1,501.1,277,501.3,276.9z"/>
	<path class="st3" d="M504.3,273.4c0.2-0.1,0.5-0.2,0.8-0.4c0,0.7-0.1,1.4-0.3,2.1c-0.6,0.3-1.2,0.6-1.8,0.9
		C503.6,275.3,504,274.4,504.3,273.4z"/>
	<path class="st3" d="M519.3,279.6c0,0.1-0.1,0.2-0.2,0.1c-3.9-6.1-8.7-6.8-13.5-5c0.3-0.7,0.4-1.4,0.5-2.2c2.3-0.9,4.6-1.1,7.1-0.4
		C516.5,273.4,518.4,276.4,519.3,279.6z"/>
	<path class="st3" d="M267.2,152c-1.3,0.3-1.8-1.5-0.6-1.9c-0.1,0.1,0.1,0.1,0.1,0.1c0.2,0.1,0.3-0.2,0.3-0.5
		c-0.1-0.6-0.3-1.2-0.7-1.8c0.6,0.4,1.1,0.8,1.6,1.4C268.7,150.1,268.4,151.5,267.2,152z"/>
	<path class="st3" d="M405.3,96.6c5.1-15.7-0.1-29.7-14.7-37.6c1.7,0.8,3.4,1.6,5,2.6C407.6,69.1,410.9,84,405.3,96.6z"/>
	<path class="st3" d="M575.1,245.8c-5.2-50-37-83.9-87.1-90.1c4.1,0.5,8.7,1.1,12.7,2c4,0.8,8.5,2,12.4,3.3
		C550,172.6,573.1,207.9,575.1,245.8z"/>
	<path class="st3" d="M134,206.2c-14.7-9.2-10.4-33.1-4.3-46.5C126.5,174,121.7,194.9,134,206.2z"/>
	<path class="st3" d="M155.2,338.3c-12.5,1-25.5-0.7-36.9-6.2c-36.8-17.9-39.1-65-33.4-100.6c-3.3,35.2-1.6,80.9,34.1,99.2
		C130.1,336.5,142.8,338.5,155.2,338.3z"/>
	<path class="st3" d="M354.1,277.8c-1,8.6-1.8,17.4-1.7,26.1c0,2.9,0.2,5.8,0.5,8.7c-3.3-18.1,1.3-51.6,7.4-69.1
		C357.2,254.7,355.5,266.3,354.1,277.8z"/>
	<path class="st3" d="M312.1,326.6c-0.4-23.6,1.5-48.4,2.2-72C314.9,278.2,313,303,312.1,326.6z"/>
	<path class="st3" d="M48.9,165.9c0.1,3.3,0.4,6.6,0.6,9.9c-3.5-26.3-1.6-53.2,3.2-79.1C49.6,119.6,47.8,142.8,48.9,165.9z"/>
	<path class="st3" d="M173.7,182.2c0.5,4.7,1.2,9.4,1.7,14.1c-0.6-4.2-1.7-9.9-2.2-14.1c-1.1-9-2.1-19.3-2.5-28.3
		c-1-23.6,0.1-47.7,5.5-70.7c-4.3,22-5.2,44.7-4.8,67.1C171.9,160.6,172.6,172,173.7,182.2z"/>
	<path class="st3" d="M215.3,180.3l0.5,6.7c-4.2-35.8-1-72.4,7.2-107.4c-6.1,30.8-9.2,62.5-8,93.9
		C215,175.2,215.2,178.7,215.3,180.3z"/>
	<path class="st3" d="M339,175.2c-3.1-6.1,3.6-17.7,7.2-22.7c-2.8,6.3-6.6,12.9-7.5,19.7C338.6,173.3,338.7,174.3,339,175.2z"/>
	<path d="M505,272.4c0-0.5,0-1-0.1-1.4c0-0.4-0.1-0.7-0.2-1.1c0,0.4,0,0.8-0.1,1.2c-0.1,0.8-0.2,1.5-0.4,2.3c-0.3,1-0.7,1.9-1.3,2.6
		c0,0,0,0,0,0c-0.5,0.3-1,0.6-1.6,1c-0.2,0.1-0.4,0.1-0.7,0.1c-0.5,0-0.9,0.5-0.9,1c0,0.1,0,0.2,0,0.3c0.2,0.5,0.7,0.8,1.2,0.7
		c2-0.5,3.2-2.1,3.7-4c0.2-0.7,0.3-1.4,0.3-2.1C505,272.8,505,272.6,505,272.4z M503.3,261.5c-0.8-1.1-2-1.9-3.4-1.7
		c0,0-0.1,0.1,0,0.1c1.9,1.5,4,2.6,4.8,5.1c0,0.1,0.1,0,0.1,0C504.6,263.7,504.1,262.5,503.3,261.5z M461.2,282.6
		c-1.4,8.1-2,16.9-2.4,25.3c-0.4,8.5-0.3,17.1,1.8,25.3l0.1,0C458.8,316.4,459.4,299.4,461.2,282.6z M427,275.2
		c-0.1,0-0.1,0.2,0,0.2c1.3,0.1,2.6,0.5,3.8,1.1c1.4,0.8,2.5,2,3.3,3.4c1,2.1,1.9,4.2,3.2,6.1c0.1,0.1,0.2,0,0.2,0
		C438.6,280.3,432.8,274.3,427,275.2z M420.9,284.1c-6.4,5.9-9,15-8.9,23.5c0.1,6.5,1.9,12.8,4.4,18.7c1,1.9,2,3.8,3,5.6
		c-0.9-2.9-2.2-6-3-9C412.6,310.2,412.7,295.2,420.9,284.1z"/>
	<path class="st3" d="M505,273c0,0.7-0.1,1.4-0.3,2.1c-0.5,1.8-1.7,3.5-3.7,4c-0.5,0.2-1.1-0.1-1.2-0.7c0-0.1,0-0.2,0-0.3
		c0-0.5,0.4-0.9,0.9-1c0.2,0,0.5-0.1,0.7-0.1c0.6-0.2,1.2-0.5,1.6-1c0,0,0,0,0,0c0.6-0.7,1.1-1.6,1.3-2.6c0.2-0.7,0.3-1.5,0.4-2.3
		c0-0.4,0.1-0.8,0.1-1.2c0.1,0.4,0.1,0.7,0.2,1.1c0,0.5,0.1,0.9,0.1,1.4C505,272.6,505,272.8,505,273z"/>
	<path class="st3" d="M416.5,322.9c0.8,3,2,6.1,3,9c-1.1-1.8-2-3.7-3-5.6c-2.6-5.9-4.3-12.2-4.4-18.7c-0.1-8.5,2.5-17.6,8.9-23.5
		C412.7,295.2,412.6,310.2,416.5,322.9z"/>
	<path class="st3" d="M495.9,299.9c-4.3,7.5-10.1,18.5-3.1,26c1.3,1.4,2.9,2.4,4.7,3.4c-1.9-0.5-3.7-1.4-5.3-2.7
		c-8.5-7.3-2.8-20.1,2.5-27.6c2.3-3.1,4.8-6.5,8.3-8.4C499.9,293.2,497.9,296.7,495.9,299.9z"/>
	<path class="st3" d="M437.5,286c0,0.1-0.1,0.1-0.2,0c-1.3-2-2.2-4-3.2-6.1c-0.8-1.4-1.9-2.6-3.3-3.4c-1.1-0.7-2.4-1.1-3.8-1.1
		c-0.1,0-0.1-0.2,0-0.2C432.8,274.3,438.6,280.3,437.5,286z"/>
	<path class="st3" d="M306.2,202.7c0,0.1-0.1,0.2-0.2,0.1c-2.7-1.5-4.6-3.8-6.5-6.1c-2-2.2-4.5-3.7-7.5-4c-0.1,0-0.1-0.2,0-0.2
		c4.7-0.6,9,2.8,11.9,6.2C304.9,199.9,305.7,201.2,306.2,202.7z"/>
	<path class="st3" d="M460.6,333.2l-0.1,0c-2-8.3-2.1-16.9-1.8-25.3c0.4-8.4,1-17.2,2.4-25.3C459.4,299.4,458.8,316.4,460.6,333.2z"
		/>
	<path class="st3" d="M504.8,264.9C504.8,265,504.7,265,504.8,264.9c-0.9-2.4-3-3.5-4.9-5c0,0,0-0.1,0-0.1c1.4-0.2,2.6,0.6,3.4,1.7
		C504.1,262.5,504.6,263.7,504.8,264.9z"/>
</g>
</svg>
